<svg viewBox="0 0 203 123" xmlns="http://www.w3.org/2000/svg">
    <g opacity="0.5">
        <path fill-rule="evenodd" clip-rule="evenodd"
              d="M21.9027 6.63671L132.453 6.61115L128.544 24.874L199.309 24.8576L180.416 116.498L90.7365 116.519L95.6226 92.7116L3.00849 92.733L21.9027 6.63671ZM107.152 25.4055L99.4027 25.4055L96.1021 44.2845C93.9496 40.4655 90.0751 38.5199 84.4786 38.5199C80.8193 38.5199 77.5188 39.5287 74.5052 41.4022C71.4917 43.2757 69.124 45.9418 67.4019 49.2565C65.6799 52.5711 64.8189 56.3181 64.8189 60.3533C64.8189 63.3797 65.3929 66.1179 66.6844 68.5679C67.9759 71.0178 69.7697 72.8913 72.0657 74.2604C74.3617 75.6295 76.9448 76.278 79.9583 76.278C82.3978 76.278 84.6221 75.8457 86.6311 74.9089C88.5683 73.9722 90.2186 72.6751 91.6536 71.0178L91.7254 75.8457L98.2547 75.8457L107.152 25.4055ZM88.2813 67.7032C86.3441 69.0723 84.1198 69.7208 81.6085 69.7208C78.882 69.7208 76.6578 68.8561 75.0793 67.0547C73.5007 65.2532 72.7115 62.6592 72.7115 59.3445C72.7115 57.0387 73.2137 54.7328 74.2182 52.5711C75.2228 50.4094 76.7295 48.608 78.6668 47.2389C80.5323 45.8698 82.7566 45.1492 85.3396 45.1492C88.0661 45.1492 90.2186 46.086 91.7971 47.8153C93.3756 49.6168 94.2366 52.1388 94.2366 55.4534C94.2366 57.8313 93.6626 60.1371 92.6581 62.2989C91.6536 64.5326 90.1469 66.3341 88.2813 67.7032ZM53.021 40.3934C50.6532 39.1684 47.9267 38.5199 44.7697 38.5199C40.6082 38.5199 36.9489 39.5287 33.8636 41.4022C30.7784 43.2757 28.4106 45.8698 26.7603 49.1124C25.1101 52.427 24.3208 56.0299 24.3208 59.993C24.3208 63.1635 24.9666 65.9738 26.3298 68.4237C27.6931 70.8737 29.6304 72.8192 32.2134 74.1883C34.7964 75.6295 37.7382 76.278 41.1822 76.278C45.559 76.278 49.29 75.1971 52.447 72.8913C55.5323 70.6575 57.613 67.487 58.6893 63.4518L50.9402 63.4518C49.9357 65.6135 48.716 67.2708 47.281 68.3517C45.846 69.4325 43.8369 69.9369 41.3257 69.9369C38.4557 69.9369 36.2314 69.0723 34.5811 67.1988C32.8591 65.3253 32.0699 63.1636 32.0699 60.5695C32.0699 60.0651 32.0699 59.6327 32.1416 59.2004L59.6938 59.2004C60.1243 57.471 60.3396 55.5255 60.3396 53.3638C60.3396 50.4815 59.6938 47.8874 58.474 45.6536C57.1825 43.4198 55.3888 41.6904 53.021 40.3934ZM52.2318 53.3637L33.3614 53.3637C34.0071 50.8417 35.2986 48.7521 37.3077 47.1668C39.2449 45.5815 41.5409 44.7889 44.1957 44.7889C46.6352 44.7889 48.6442 45.5095 50.0792 46.8065C51.5143 48.1036 52.3035 49.977 52.3035 52.3549C52.3035 52.6082 52.2789 52.8367 52.2585 53.0261C52.2441 53.1599 52.2318 53.2742 52.2318 53.3637ZM134.771 73.9006L120.083 42.2453L136.309 41.8929L145.658 62.317L162.422 41.6261L178.37 41.4631L152.49 73.7196L168.032 106.859L151.618 107.026L141.602 85.2099L123.64 107.312L107.785 107.474L134.771 73.9006Z"
              fill="#4D4D4D"/>
    </g>
</svg>
