<svg viewBox="0 0 40 40" fill="none" xmlns="http://www.w3.org/2000/svg">
    <path d="M32.5 28.3333L36.6667 32.5L32.5 36.6666" stroke="black" stroke-width="4" stroke-linecap="round"
          stroke-linejoin="round"/>
    <path d="M6.66634 9.99998C7.5504 9.99998 8.39824 9.64879 9.02336 9.02367C9.64849 8.39855 9.99967 7.5507 9.99967 6.66665C9.99967 5.78259 9.64849 4.93474 9.02336 4.30962C8.39824 3.6845 7.5504 3.33331 6.66634 3.33331C5.78229 3.33331 4.93444 3.6845 4.30932 4.30962C3.6842 4.93474 3.33301 5.78259 3.33301 6.66665C3.33301 7.5507 3.6842 8.39855 4.30932 9.02367C4.93444 9.64879 5.78229 9.99998 6.66634 9.99998V9.99998Z"
          stroke="black" stroke-width="4" stroke-linejoin="round"/>
    <path d="M10 6.66663H16.6667C17.5507 6.66663 18.3986 7.01782 19.0237 7.64294C19.6488 8.26806 20 9.1159 20 9.99996V29.1666C20 30.0507 20.3512 30.8985 20.9763 31.5236C21.6014 32.1488 22.4493 32.5 23.3333 32.5H36.6667"
          stroke="black" stroke-width="4" stroke-linecap="round" stroke-linejoin="round"/>
</svg>
