<svg width="42" height="39" viewBox="0 0 42 39" fill="none" xmlns="http://www.w3.org/2000/svg">
<path d="M6.89411 33.5828C3.70558 28.1967 2.19492 20.7228 1.88381 20.0015C1.5727 19.2802 10.0894 28.102 10.8369 29.8345C11.5844 31.567 8.05763 19.0989 6.05889 14.787" stroke="#FF6868" stroke-width="2" stroke-linecap="round"/>
<path d="M32.018 4.06503C32.4172 8.79932 31.8376 20.4287 31.3465 19.8359C30.8555 19.2432 26.2618 6.75389 26.3068 7.53792C26.3517 8.32195 26.165 19.9047 26.3565 22.0106C26.548 24.1165 20.7216 14.3161 18.7008 6.56528" stroke="#FF6868" stroke-width="2" stroke-linecap="round"/>
<path d="M16.4375 12.0368C10.039 16.0693 10.1946 16.43 9.98884 16.9459C9.78309 17.4619 11.8558 21.2738 12.167 21.9951M22.1388 23.2672C21.2104 24.0938 15.3288 28.3317 14.6563 27.7657C13.9838 27.1996 12.4781 22.7165 12.167 21.9951M12.167 21.9951C12.8462 21.4638 15.7025 18.674 18.7712 17.4466" stroke="#FF6868" stroke-width="2" stroke-linecap="round" stroke-linejoin="round"/>
<path d="M18.8515 33.6789C19.5699 33.9667 24.719 36.6099 27.6389 37.17C30.5587 37.7301 25.205 33.5134 22.56 27.3821" stroke="#FF6868" stroke-width="2" stroke-linecap="round"/>
<path d="M35.7029 1.25793C38.6713 7.02487 39.7399 10.1727 40.1697 15.5841" stroke="#FF6868" stroke-width="2" stroke-linecap="round"/>
<path d="M40.3262 18.7041C40.143 18.7791 40.164 18.8215 40.3151 18.897" stroke="#FF6868" stroke-width="2" stroke-linecap="round"/>
</svg>
