<svg width="36" height="40" viewBox="0 0 36 40" fill="none" xmlns="http://www.w3.org/2000/svg">
<path d="M12.833 33.8477C12.833 31.3252 11.2939 29.2257 9.08301 28.2106V21.4584C10.5518 22.2966 12.2627 22.7734 14.083 22.7734H21.583C24.3408 22.7734 26.583 24.9806 26.583 27.6953V28.2106C24.3721 29.2257 22.833 31.3252 22.833 33.8477C22.833 37.2453 25.6299 40 29.083 40C32.5361 40 35.333 37.2453 35.333 33.8477C35.333 31.3252 33.7939 29.2257 31.583 28.2106V27.6953C31.583 22.2582 27.1064 17.8516 21.583 17.8516H14.083C11.3252 17.8516 9.08301 15.6444 9.08301 12.9297V12.4144C11.2939 11.4685 12.833 9.2998 12.833 6.77734C12.833 3.37817 10.0361 0.625 6.58301 0.625C3.13145 0.625 0.333008 3.37817 0.333008 6.77734C0.333008 9.2998 1.87598 11.4685 4.08301 12.4144V28.2106C1.87598 29.2257 0.333008 31.3252 0.333008 33.8477C0.333008 37.2453 3.13145 40 6.58301 40C10.0361 40 12.833 37.2453 12.833 33.8477ZM6.58301 32.002C7.61816 32.002 8.45801 32.8287 8.45801 33.8477C8.45801 34.8666 7.61816 35.6934 6.58301 35.6934C5.54785 35.6934 4.70801 34.8666 4.70801 33.8477C4.70801 32.8287 5.54785 32.002 6.58301 32.002ZM29.083 35.6934C28.0439 35.6934 27.208 34.8666 27.208 33.8477C27.208 32.8287 28.0439 32.002 29.083 32.002C30.1221 32.002 30.958 32.8287 30.958 33.8477C30.958 34.8666 30.1221 35.6934 29.083 35.6934ZM6.58301 4.93164C7.61816 4.93164 8.45801 5.75452 8.45801 6.77734C8.45801 7.80017 7.61816 8.62305 6.58301 8.62305C5.54785 8.62305 4.70801 7.80017 4.70801 6.77734C4.70801 5.75452 5.54785 4.93164 6.58301 4.93164Z" fill="#DDF247"/>
</svg>
