<?xml version="1.0" encoding="UTF-8"?>
<svg xmlns="http://www.w3.org/2000/svg" xmlns:xlink="http://www.w3.org/1999/xlink" width="65px" height="64px" viewBox="0 0 65 64" version="1.1">
<defs>
<clipPath id="clip1">
  <path d="M 32.5 0 C 50.449219 0 65 14.328125 65 32 C 65 49.671875 50.449219 64 32.5 64 C 14.550781 64 0 49.671875 0 32 C 0 14.328125 14.550781 0 32.5 0 Z M 32.5 0 "/>
</clipPath>
<clipPath id="clip2">
  <path d="M 23 22 L 44 22 L 44 45 L 23 45 Z M 23 22 "/>
</clipPath>
<clipPath id="clip3">
  <path d="M 32.5 0 C 50.449219 0 65 14.328125 65 32 C 65 49.671875 50.449219 64 32.5 64 C 14.550781 64 0 49.671875 0 32 C 0 14.328125 14.550781 0 32.5 0 Z M 32.5 0 "/>
</clipPath>
</defs>
<g id="surface1">
<g clip-path="url(#clip1)" clip-rule="nonzero">
<path style=" stroke:none;fill-rule:nonzero;fill:rgb(0%,0%,0%);fill-opacity:1;" d="M 32.5 0 C 50.449219 0 65 14.328125 65 32 C 65 49.671875 50.449219 64 32.5 64 C 14.550781 64 0 49.671875 0 32 C 0 14.328125 14.550781 0 32.5 0 Z M 32.5 0 "/>
</g>
<g clip-path="url(#clip2)" clip-rule="nonzero">
<g clip-path="url(#clip3)" clip-rule="nonzero">
<path style=" stroke:none;fill-rule:nonzero;fill:rgb(100%,100%,100%);fill-opacity:1;" d="M 43.332031 32.1875 L 23.238281 22.960938 L 23.238281 25.625 L 40.246094 33.519531 L 23.238281 41.359375 L 23.238281 44.078125 L 43.332031 34.851562 Z M 43.332031 32.1875 "/>
</g>
</g>
</g>
</svg>
